<?xml version="1.0" encoding="UTF-8"?>
<svg width="1200pt" height="1200pt" version="1.1" viewBox="0 0 1200 1200" xmlns="http://www.w3.org/2000/svg">
 <path fill="currentColor" d="m340.22 634.64c-16.531-21.254-15.742-52.742 3.9375-72.422 6.2969-6.2969 14.957-11.02 23.617-13.383-3.1484-7.0859-4.7227-14.957-4.7227-22.828 0-14.957 5.5117-28.34 15.742-38.574 19.68-19.68 49.594-21.254 70.848-5.5117 2.3633-6.2969 5.5117-12.594 10.234-18.105 10.234-11.02 24.402-18.105 39.359-18.105 14.168-0.78906 28.34 4.7227 38.574 14.957 1.5742-2.3633 3.1484-5.5117 5.5117-7.0859 10.234-11.02 24.402-18.105 39.359-18.105 15.742-0.78906 29.914 5.5117 40.148 15.742l78.715 77.938c8.6602-33.062 40.148-55.891 74.785-51.957 9.4453 0.78906 18.105 5.5117 24.402 11.809 14.168-15.742 36.211-25.191 59.039-22.828 21.254 2.3633 37.785 20.469 37.785 42.508l-0.78906 114.14c0 29.914 3.9375 60.613 11.02 87.379v0.78906c15.742 55.105 0 114.14-40.148 154.29-41.723 41.723-97.613 64.551-155.87 64.551-4.7227 0-10.234 0-14.957-0.78906-22.043 7.0859-45.656 11.02-68.488 11.02-56.68 0-113.36-21.254-155.87-64.551l-151.93-152.72c-10.234-10.234-15.742-24.402-15.742-38.574 0-14.957 5.5117-28.34 15.742-38.574 5.5195-4.7148 12.605-8.6523 19.691-11.016zm259.78-160.59c-4.7227-4.7227-11.02-6.2969-16.531-6.2969-6.2969 0-11.809 3.1484-15.742 7.0859-2.3633 3.1484-3.9375 7.0859-3.9375 11.02l129.89 133.04 3.9375-48.02zm244.82 369.2c32.273-32.273 44.082-78.719 32.273-122.02-8.6602-31.488-12.594-64.551-12.594-97.613l0.78906-114.14c0-4.7227-3.9375-9.4453-8.6602-9.4453-20.469-2.3633-38.574 12.594-40.934 32.273l-1.5742 18.895-0.78906 82.656c0 29.914 3.9375 59.828 10.234 86.594 0 0.78906 0.78906 0.78906 0.78906 1.5742 15.742 55.105 0 114.14-40.148 154.29-3.9375 3.9375-8.6602 7.8711-12.594 11.809 27.551-9.4492 52.742-24.406 73.207-44.875zm-501.45-142.48 151.93 152.72c73.211 73.211 192.86 73.211 266.07 0 31.488-31.488 44.082-77.934 32.273-121.23v-0.78906c-8.6602-32.273-12.594-64.551-12.594-97.613v-114.14c0-4.7227-3.9375-9.4453-8.6602-9.4453-20.469-2.3633-38.574 12.594-40.934 32.273l-5.5117 79.508c-1.5742 11.809-9.4453 22.043-20.469 25.977-11.809 3.9375-23.617 0.78906-32.273-7.0859l-155.87-155.87c-4.7227-4.7227-8.6602-7.0859-16.531-6.2969-6.2969 0-11.809 3.1484-15.742 7.0859-7.0859 7.8711-6.2969 23.617 2.3633 32.273l115.72 116.51c6.2969 6.2969 6.2969 16.531 0 22.828-3.1484 3.1484-7.0859 4.7227-11.809 4.7227-3.9375 0-8.6602-1.5742-11.809-4.7227l-147.21-147.21c-8.6602-8.6602-22.828-8.6602-31.488 0-3.9375 3.9375-6.2969 9.4453-6.2969 15.742s2.3633 11.809 6.2969 15.742l148 147.21c6.2969 6.2969 6.2969 16.531 0 22.828-3.1484 3.1484-7.0859 4.7227-11.809 4.7227-4.7227 0-8.6602-1.5742-11.809-4.7227l-126.74-126.74c-8.6602-8.6602-22.828-8.6602-31.488 0-8.6602 8.6602-8.6602 22.828 0 31.488l29.914 29.914 22.039 21.25 75.57 75.57c6.2969 6.2969 6.2969 16.531 0 22.828-3.1484 3.1484-7.0859 4.7227-11.809 4.7227s-8.6602-1.5742-11.809-4.7227l-96.824-96.824c-8.6602-8.6602-22.828-8.6602-31.488 0-3.9375 3.9375-6.2969 9.4453-6.2969 15.742 0 6.3008 2.3633 11.812 7.0859 15.746zm101.55-335.35-40.148-85.805c-3.9375-7.8711-13.383-11.809-21.254-7.8711s-11.809 13.383-7.8711 21.254l39.359 86.594c3.1484 6.2969 8.6602 9.4453 14.957 9.4453 2.3633 0 4.7227-0.78906 7.0859-1.5742 7.8711-3.9375 11.02-14.168 7.8711-22.043zm84.23-87.379c2.3633-8.6602-3.1484-17.32-11.809-19.68-8.6562-2.3594-17.316 2.3633-19.68 11.02l-24.402 91.316c-2.3633 8.6602 3.1484 17.32 11.809 19.68 1.5742 0 3.1484 0.78906 3.9375 0.78906 7.0859 0 13.383-4.7227 15.742-11.809zm-235.37 110.21 85.805 40.145c2.3633 0.78906 4.7227 1.5742 7.0859 1.5742 6.2969 0 11.809-3.1484 14.957-9.4453 3.9375-7.8711 0-18.105-7.8711-21.254l-85.805-40.148c-7.8711-3.9375-18.105 0-21.254 7.8711-4.7266 7.875-0.78906 17.32 7.082 21.258z"/>
</svg>
